# xmcd CD database file
#
# Track frame offsets:
#	150
#	17282
#	31622
#	47457
#	87604
#	108134
#	127207
#	154795
#	176454
#	194851
#	210241
#	228104
#	244525
#	261001
#	277834
#
# Disc length: 4101 seconds
#
# Revision: 0
# Processed by: cddbd v1.5.2PL0 Copyright (c) Steve Scherf et al.
# Submitted via: CDex 1.51
#
DISCID=b510030f
DTITLE=Various Artist - OffBeat Louisiana Music
DYEAR=2005
DGENRE=Blues
TTITLE0=Y'all'd Think She'd Be Good 2 Me - C.C. Adcock
TTITLE1=Pin Your Spin - Jon Cleary and the Absolute Monster Gentlemen
TTITLE2=Lie to Me - Theresa Andersson
TTITLE3=James Booker - Los Hombres Calientes
TTITLE4=Sassy Miss Tallulah - Amanda Shaw
TTITLE5=Slip Away - Big Red and the Zydeco Playmakers
TTITLE6=Dancing in the Sky - Dr. Michael White
TTITLE7=The Sweeper - Jason Marsalis
TTITLE8=Flame On - The Iguanas
TTITLE9=Let Somebody Down - Sons of William (feat. Joe Stark)
TTITLE10=Gone Pecan - Sonny Landreth
TTITLE11=Si Tu Veux ma Fille - T-Salé
TTITLE12=Hoopin' and Hollerin' - Irvin Mayfield w- the N.O. Jazz Orch.
TTITLE13=Jump to the Music - Henry Butler
TTITLE14=Make Way for the ReBirth - Kermit Ruffins w- the ReBirth Brass Band
EXTD=YEAR: 2005
EXTT0=
EXTT1=
EXTT2=
EXTT3=
EXTT4=
EXTT5=
EXTT6=
EXTT7=
EXTT8=
EXTT9=
EXTT10=
EXTT11=
EXTT12=
EXTT13=
EXTT14=
PLAYORDER=
